<?xml version="1.0" encoding="UTF-8"?><svg id="Layer_1" xmlns="http://www.w3.org/2000/svg" xmlns:xlink="http://www.w3.org/1999/xlink" viewBox="0 0 535 232.72"><defs><clipPath id="clippath"><rect x="284" width="168.57" height="186.66" style="fill:none;"/></clipPath><clipPath id="clippath-1"><rect x="284" width="168.57" height="186.66" style="fill:none;"/></clipPath></defs><g id="CPI-Logo-Current---Option-Studios"><path d="M42.45,161h16.68c-1.09,4.96-3.97,10.05-8.64,15.27-4.67,5.22-11.42,7.83-20.26,7.82-8.83,0-16.07-3.05-21.74-9.16C2.82,168.82,0,161.9,0,154.15,0,146.4,2.83,139.5,8.49,133.45c5.66-6.05,12.86-9.08,21.6-9.09,4.11-.03,8.19,.75,12,2.31,3.48,1.38,6.61,3.51,9.16,6.25,2.01,2.14,3.78,4.48,5.28,7,1.21,2.22,2.08,4.61,2.6,7.08h-16.68l-1.79-2.83c-1.24-1.52-2.84-2.7-4.66-3.43-1.84-.78-3.81-1.19-5.81-1.19-4.11-.17-8.09,1.45-10.9,4.45-2.65,2.77-4.12,6.45-4.1,10.28,0,3.87,1,6.89,3,9.08,1.65,1.93,3.7,3.48,6,4.55,2.03,.85,4.2,1.28,6.4,1.26,1.75,.03,3.48-.26,5.13-.84,2.5-1.13,4.59-3,6-5.36,.34-.62,.58-1.28,.73-1.97Z" style="fill:#091e53;"/><path d="M73.54,164c2.77,2.93,6.67,4.54,10.7,4.42,4.41,0,7.9-1.39,10.49-4.2,5.18-5.85,5.18-14.64,0-20.49-2.59-2.81-6.09-4.22-10.49-4.21-3.96-.14-7.79,1.45-10.48,4.36-2.6,2.71-4.04,6.33-4,10.09-.06,3.7,1.29,7.29,3.78,10.03Zm-10.71-30.45c5.55-5.98,13.4-9.29,21.56-9.1,4.02-.02,8.01,.76,11.74,2.28,3.66,1.48,6.97,3.73,9.68,6.6,2.69,2.78,4.79,6.07,6.19,9.67,1.33,3.44,2,7.09,2,10.78,0,7.83-2.03,13.92-6.08,18.27-4.05,4.35-7.94,7.28-11.67,8.8-3.77,1.52-7.81,2.3-11.88,2.27-8.67,0-15.78-2.98-21.34-8.95-10.97-11.29-11.06-29.22-.22-40.63h.02Z" style="fill:#091e53;"/><path d="M113,148.73c0-7.63,2.6-13.57,7.8-17.83,11.02-8.5,26.38-8.5,37.4,0,5.2,4.26,7.8,10.2,7.8,17.83v32.27h-16v-32.27c.12-2.7-1.04-5.3-3.15-7-2.25-1.71-5.02-2.59-7.85-2.49-2.77-.05-5.48,.83-7.7,2.49-2.18,1.65-3.41,4.27-3.3,7v32.27h-15v-32.27Z" style="fill:#091e53;"/><path d="M167,148.73c0-7.63,2.6-13.57,7.8-17.83,11.02-8.5,26.38-8.5,37.4,0,5.2,4.26,7.8,10.2,7.8,17.83v32.27h-15v-32.27c.12-2.7-1.04-5.3-3.15-7-2.25-1.71-5.02-2.59-7.85-2.49-2.77-.05-5.48,.83-7.7,2.49-2.18,1.65-3.41,4.27-3.3,7v32.27h-16v-32.27Z" style="fill:#091e53;"/><path d="M317.29,161h16.71c-1.1,4.96-3.98,10.05-8.64,15.27s-11.41,7.83-20.26,7.82c-8.84,0-16.09-3.05-21.74-9.16-5.65-6.11-8.48-13.03-8.49-20.78,0-7.75,2.83-14.65,8.49-20.7,5.66-6.05,12.86-9.08,21.59-9.09,4.11-.03,8.19,.75,12,2.31,3.48,1.37,6.61,3.51,9.16,6.25,2.01,2.13,3.79,4.48,5.29,7,1.2,2.22,2.08,4.61,2.6,7.08h-16.71l-1.78-2.83c-1.23-1.52-2.82-2.7-4.62-3.43-1.84-.78-3.81-1.19-5.81-1.19-4.12-.19-8.13,1.44-10.95,4.45-2.66,2.77-4.15,6.46-4.13,10.3,0,3.87,1,6.89,3,9.08,1.65,1.93,3.7,3.48,6,4.55,2.03,.85,4.21,1.28,6.41,1.26,1.99,.04,3.97-.34,5.81-1.12,2.94-1.4,5.15-3.96,6.1-7.07h-.03Z" style="fill:#091e53;"/><path d="M354,93l.15,21h13.85v15l-14,.15v51.85h-15l-.15-51h-13.85v-15l14-.15v-21.85h15Z" style="fill:#091e53;"/><path d="M428.4,161h16.69c-1.1,4.96-3.98,10.05-8.64,15.27-4.66,5.22-11.41,7.83-20.26,7.82-8.84,0-16.09-3.05-21.75-9.16-5.66-6.11-8.47-13.03-8.44-20.78,0-7.75,2.83-14.65,8.49-20.7,5.66-6.05,12.86-9.08,21.6-9.09,4.11-.03,8.19,.75,12,2.31,3.48,1.37,6.61,3.51,9.16,6.25,2.01,2.14,3.78,4.48,5.29,7,1.21,2.22,2.09,4.61,2.61,7.08h-16.75l-1.78-2.83c-1.23-1.51-2.82-2.69-4.62-3.43-1.84-.78-3.81-1.19-5.81-1.19-4.12-.19-8.13,1.44-10.95,4.45-2.64,2.77-4.11,6.45-4.09,10.28,0,3.87,1,6.89,3,9.08,1.64,1.92,3.66,3.48,5.95,4.55,2.03,.85,4.21,1.28,6.41,1.26,1.75,.02,3.48-.26,5.13-.84,2.5-1.14,4.59-3.01,6-5.36,.35-.61,.61-1.28,.76-1.97Z" style="fill:#091e53;"/><path d="M443,159.27v-32.27h15v32.27c-.12,2.72,1.08,5.33,3.23,7,4.65,3.32,10.89,3.32,15.54,0,2.15-1.67,3.35-4.28,3.23-7v-32.27h16v32.27c0,7.63-2.6,13.57-7.8,17.83-11.02,8.5-26.38,8.5-37.4,0-5.2-4.26-7.8-10.2-7.8-17.83Z" style="fill:#091e53;"/><path d="M521,93l.15,21h13.85v15l-14,.15v51.85h-15l-.15-51h-13.85v-15l14-.15v-21.85h15Z" style="fill:#091e53;"/><path d="M474.7,187.75c8.46,0,14.14,3.77,14.14,10.25h2.16c0-8-6.55-12.23-16.3-12.23s-16.43,4.23-16.43,12.23c0,18.28,32.73,3.83,32.73,21,0,6.86-6.79,11-16.3,11s-16.31-4.26-16.31-11h-2.16c0,8.34,7.59,13,18.47,13s18.46-4.63,18.46-13c0-19.58-32.73-5.25-32.73-21,0-6.61,5.8-10.25,14.27-10.25Zm-20.7,2.25v-2h-32v2h15v41h2v-41h15Zm-53.27-2.25c8.46,0,14.14,3.77,14.14,10.25h2.13c0-8-6.54-12.23-16.3-12.23s-16.4,4.23-16.4,12.23c0,18.28,32.73,3.83,32.73,21,0,6.86-6.79,11-16.3,11s-16.31-4.26-16.31-11h-2.16c0,8.34,7.6,13,18.47,13s18.47-4.63,18.47-13c0-19.58-32.74-5.25-32.74-21,0-6.61,5.81-10.25,14.27-10.25Zm-25.73,43.25h2v-43h-2v43Zm-6-41v-2h-32v2h15v41h2v-41h15Zm-37-2h-2v28.07c0,8.51-6.39,14.58-16,14.58s-16-6.07-16-14.58v-28.07h-2v28.07c0,9.8,7.17,16.54,18,16.54s18-6.74,18-16.54v-28.07Zm-44,43v-43h-2v21h-30v-21h-2v43h2v-21h30v21h2Zm-61.12-43c9.84,0,17.54,5.36,18.4,13.05h2.15c-.86-8.74-8.8-15-20.55-15-14.59,0-22.16,10.27-22.16,23s7.57,23,22.16,23c11.75,0,19.69-6.22,20.55-15h-2.15c-.86,7.82-8.56,13.05-18.4,13.05-12.62,0-20-9.23-20-21.05s7.38-21.05,20-21.05Zm-56.32,32l12.87-29.84,12.87,29.84h-25.74Zm14-32h-2.19l-18.7,43h2.63l3.81-9h26.71l3.81,9h2.64l-18.71-43Zm-36.77,22h-19.79v-21h19.75c5.74-.25,10.59,4.2,10.84,9.94,0,.2,.01,.39,0,.59,0,5.73-4.3,10.47-10.85,10.47h.04Zm12.2-9.79c0-6.56-5.1-12.21-12.69-12.21h-21.3v43h2v-19h20.31c2.91,.05,5.46,1.98,6.3,4.77l4.73,14.23h2.13l-5-15.18c-.7-1.95-2.13-3.54-4-4.44,4.55-1.84,7.53-6.26,7.53-11.17h-.01Zm-71.99,19.79l12.87-29.84,12.82,29.84h-25.69Zm14-32h-2.27l-18.73,43h2.63l3.82-9h26.7l3.82,9h2.63l-18.6-43Zm-30.45,25h-19.55v-23h19.55c6.47,0,10.73,5.43,10.73,11.53s-4.28,11.47-10.73,11.47Zm13-11.47c0-7.1-5.19-13.53-12.91-13.53h-21.64v43h2v-16h19.59c7.72,0,12.91-6.43,12.91-13.47h.05Z" style="fill:#383838;"/><path d="M474.7,187.75c8.46,0,14.14,3.77,14.14,10.25h2.16c0-8-6.55-12.23-16.3-12.23s-16.43,4.23-16.43,12.23c0,18.28,32.73,3.83,32.73,21,0,6.86-6.79,11-16.3,11s-16.31-4.26-16.31-11h-2.16c0,8.34,7.59,13,18.47,13s18.46-4.63,18.46-13c0-19.58-32.73-5.25-32.73-21,0-6.61,5.8-10.25,14.27-10.25Zm-20.7,2.25v-2h-32v2h15v41h2v-41h15Zm-53.27-2.25c8.46,0,14.14,3.77,14.14,10.25h2.13c0-8-6.54-12.23-16.3-12.23s-16.4,4.23-16.4,12.23c0,18.28,32.73,3.83,32.73,21,0,6.86-6.79,11-16.3,11s-16.31-4.26-16.31-11h-2.16c0,8.34,7.6,13,18.47,13s18.47-4.63,18.47-13c0-19.58-32.74-5.25-32.74-21,0-6.61,5.81-10.25,14.27-10.25Zm-25.73,43.25h2v-43h-2v43Zm-6-41v-2h-32v2h15v41h2v-41h15Zm-37-2h-2v28.07c0,8.51-6.39,14.58-16,14.58s-16-6.07-16-14.58v-28.07h-2v28.07c0,9.8,7.17,16.54,18,16.54s18-6.74,18-16.54v-28.07Zm-44,43v-43h-2v21h-30v-21h-2v43h2v-21h30v21h2Zm-61.12-43c9.84,0,17.54,5.36,18.4,13.05h2.15c-.86-8.74-8.8-15-20.55-15-14.59,0-22.16,10.27-22.16,23s7.57,23,22.16,23c11.75,0,19.69-6.22,20.55-15h-2.15c-.86,7.82-8.56,13.05-18.4,13.05-12.62,0-20-9.23-20-21.05s7.38-21.05,20-21.05Zm-56.32,32l12.87-29.84,12.87,29.84h-25.74Zm14-32h-2.19l-18.7,43h2.63l3.81-9h26.71l3.81,9h2.64l-18.71-43Zm-36.77,22h-19.79v-21h19.75c5.74-.25,10.59,4.2,10.84,9.94,0,.2,.01,.39,0,.59,0,5.73-4.3,10.47-10.85,10.47h.04Zm12.2-9.79c0-6.56-5.1-12.21-12.69-12.21h-21.3v43h2v-19h20.31c2.91,.05,5.46,1.98,6.3,4.77l4.73,14.23h2.13l-5-15.18c-.7-1.95-2.13-3.54-4-4.44,4.55-1.84,7.53-6.26,7.53-11.17h-.01Zm-71.99,19.79l12.87-29.84,12.82,29.84h-25.69Zm14-32h-2.27l-18.73,43h2.63l3.82-9h26.7l3.82,9h2.63l-18.6-43Zm-30.45,25h-19.55v-23h19.55c6.47,0,10.73,5.43,10.73,11.53s-4.28,11.47-10.73,11.47Zm13-11.47c0-7.1-5.19-13.53-12.91-13.53h-21.64v43h2v-16h19.59c7.72,0,12.91-6.43,12.91-13.47h.05Z" style="fill:none; stroke:#808285; stroke-miterlimit:1.41; stroke-width:.22px;"/><path d="M234.73,153.41c.16-7.82,6.63-14.02,14.45-13.86,2.29,.05,4.54,.65,6.55,1.76l-21,12.1Zm14.15-29.1c-16.24,0-29.41,13.17-29.4,29.42,0,16.24,13.17,29.41,29.42,29.4,12.5,0,23.64-7.91,27.76-19.71l-15.2-3.18c-3.54,6.82-11.88,9.58-18.78,6.2l34.41-19.86,.3-.17c-3.34-13.01-15.07-22.1-28.5-22.1h0Z" style="fill:#091e53;"/><path d="M294.4,38c26,2.07,41.7,8.57,65.1,19.12-24.74-8.47-38.5-14.55-65.1-19.12Zm74.8-22.42c13.22,5.1,20.52,12,28.92,23.17-11.12-10.46-15.37-15.16-28.92-23.13v-.04Zm-62.55,12.85c24.63,2.35,39.92,9.85,60.29,23.36-22.84-12.21-34.43-18.35-60.29-23.36Zm18.84-10.55c21.32,6.34,33.94,14.88,50.12,29.86-18.77-13.98-28.17-20.74-50.12-29.86Zm21.67-4.71c17.5,7.1,28.62,14.67,39.94,30-14.21-14.92-22.1-20.09-39.94-30Zm-61.62,34.83c23.47,2.75,40.7,7.54,62.18,17.33-20.33-7.12-41.1-12.91-62.18-17.33Z" style="fill:#fff;"/></g><g id="Artwork_10"><g style="clip-path:url(#clippath);"><g style="clip-path:url(#clippath-1);"><g><path d="M451.76,40.54c-.36-.85-.58-1.74-.67-2.66-.22-1.86-.66-3.7-1.3-5.46-.41-1.19-.93-2.33-1.55-3.42-.12-.22-1.59-1.94-1.57-2,2.39-10.67,.24-14.87-3.84-21.34s-15.35-4.8-19.43-2c-1.92-5.57-15.83-3.53-20.15-.66-.84-4.92-16.43-1.44-18.95,2.88-9.47-1.56-16.67,.72-20.74,5-6.48-1.2-15.83,2-18,7.08-6.48-3.24-16.67,2.16-17.87,6.6-9.36-1.56-15.35,4.07-16.43,9.23-8.64-2.4-14.63,9.47-14.63,9.47-2.59-.02-5.16,.47-7.56,1.44-4.19,2.64-4.44,5.4-4.91,13.8-.36,4.85,1.76,9.56,5.64,12.5,0,0,0,2.85,1.86,3.75-1.62,5.75,.45,8,2.34,9.89-.54,5.85,2.7,7.37,5.31,7,2.58-.32,5.2-.01,7.64,.9,.94,.38,1.94,.61,2.95,.69l34.3,16.77c0,.19,.07,.37,.19,.51l-6.39,36.86c-.41,.54-.9,1.03-1.44,1.44-.84,.54-.63,3.3-.72,4.47s.39,1.32,.84,1.38c-.15,1.08,.66,.54,.75,.93s.66-.18,.66-.18c0,0,.63,.06,.69-.51s0-3.3,.33-3.36,1.89-1.41,3.33-2.28,1.14-3,1.47-3.3c.78,.57,1.77-.78,1.77-.78,.55-.05,1.08-.18,1.59-.39,.54-.51,.9-1.18,1-1.92,.25,0,2.09-1.8,5-3.71s2.73-2.76,3.73-3.16,.69-.93,1-1.5,0-2.82,.13-3.49,1.49-.14,1.4,1.75,1.71,3.19,2.07,5.31-1.22,2.92,.72,3,1.35,1,.76,1-4.59,0-6.65,.23-3.83,3.37-4.77,4.32c-.94,.72-1.12,2.06-.41,3,.7,.7,.77,.9,.86,2.79s.36,1.89,1.39,2.21,1.8,.63,2.93,2.83c1.18,2.52,2.83,4.79,4.85,6.7,2.21,1.93,5.85,5.67,7.15,6.07-.45,4.54,.68,5.13,1.49,4.05,1.06-1.03,2.25-1.91,3.55-2.61,.07,.6,.07,1.2,0,1.8-1.87,1.87,.14,1.66,.67,3.28s1.8,2.7,1.67,4.41,.45,4.77,1.39,4.77c0,0,.33,.55,.58,.59s.72-.32,.95-.52c2.54-2.1,4.9-5.33,4.9-8.8,0-.9,1-1.21,1.13-3.42s-1.53-2.24-2.3-2.24c-.62-1.53-2.11-2.12-2.6-2.75s-1.53,.5-1.53,.5c-.41-.21-.73-.57-.9-1,.83-.89,1.04-2.19,.54-3.29-.36-.94-2.61-1.07-3.29-1.07s-.85-.05-.85-1.94-.31-2.34-2.43-2.34c-1.26,.18-1.48-2.25-1.62-3.1s-1.84-1.44-2-1.8c1.35-.22,3.24-.58,3.24-.58,0,0,3.87,1.17,4.81,1s2.16-.27,2.34-1.71c2.12,2.12,3.33,5,5.71,7.42s3.29,1.85,5,3.15c-.27,4.41,1.34,2.79,1.88,2.47l1.4-.81c.27,.7,.76,1.3,1.39,1.71-1.08,1.53-.58,2.34,.5,2.84s1.39,1.35,2.7,1.62c.43,1.19,1.01,2.32,1.74,3.35,.52,.88,.69,2,1.27,2.84,.79,.85,2.01,1.14,3.1,.73,1.17-.45,2-1.3,2.75-4.32s-2.52-6.61-3.11-7-1.12-1.94-1.48-3-2.16-.45-2.16-.45c-.35-.32-.6-.74-.72-1.21,1.93-4.91-2.61-8.32-3.37-9.36s-1.76-.76-2.07-1.12c-.41-1.31-4.27-3.24-5.31-3.74,2.11-1.81,3.42-4.38,3.64-7.15,0-3.1-2.51-7.28-3.91-9.44-.72-1.13-1.7-2.08-2.86-2.77,.24-2.17,.31-5,.41-8.18,.04,.05,.08,.1,.11,.16,.86,1.39,1.49,.94,2,.63s1.39-.54,1.69-.24,.42,1,1.26,1.11c.87-.02,1.73,.07,2.58,.27,1.76,.44,3.59,.56,5.4,.36,1.61-.3,3.38-.51,3.8-.21,.61,.53,1.32,.92,2.1,1.13,.78,.09,.45-.8,.45-.8,.32,.14,.66,.22,1,.24,.48,0,.69,0,.69-.39,.42,0,.72,.27,1.71,1s4.44,.18,4.89-.06c.72,.16,1.44-.56,1.62-.12s.86,.27,.92,.72,.08,.8,.24,1c.06,.63,.48,.69,.72,.62,0,.91,.84,.29,.81-.18,.45,0,.59-.77,.5-1.49,.27,.5,1,1.22,1-.58s-1.55-3.07-1.91-3.43c-1.19-.43-2.43-.71-3.69-.82l-17.56-25.15s0-.08,0-.12l37-37c3.85,.54,7.68-1.06,10-4.18,2-2.52,3.72-3.12,7.67-5.4,1.66-.98,2.71-2.75,2.76-4.68,.07-.63,0-1.27-.22-1.87-.17-.38-.32-.7-.44-1m-22.38,17l-16,10.12-1.23-2,4.5-7.31c4.23-.52,8.49-.79,12.76-.79m-35.82,21.55l.45,14.71h-.14l-4.15-10.29,3.84-4.42Zm-4,4l-.1-.25,4-7.84,.11,3.43-4.01,4.66Zm4.17-4.2l7.52-8.77-7,23.68h-.07l-.45-14.91Zm.69,14.93l7.09-24,7.56-8.85,2.82,4.62-17.39,28.3s-.07,0-.1,0m17.56-28.13l1.2,2-18.35,26.37c-.04-.05-.08-.1-.13-.14h0l17.28-28.23Zm4.38-7.43l-4.38,7.13-2.81-4.59,1.25-1.46c1.95-.5,3.94-.86,5.94-1.08m-7.38,1.64c.2-.12,.41-.22,.63-.3l-.69,.81-.2-.34,.26-.17m-.4,.25l.24,.39-7.06,8.22,1.78-6c1.73-.73,3.41-1.59,5-2.59m-5.22,2.66l-1.85,6.25-7.84,9.14-.11-3.55,5.25-10.3c1.55-.42,3.07-.94,4.55-1.54m-8.86,2.58c1.37-.28,2.61-.57,3.75-.88l-4.71,9.24-.25-8.1,1.21-.26m-1.37,.3l.26,8.36-4.19,8.21-.25-.61,4.15-16h0m-4.08,16.23l.22,.55-.65,1.26h0l.43-1.81Zm-.9,1.73h0l-.16-4.43,.82,2-.66,2.43Zm1.33-.65l.08,.2-.45,.52,.37-.72Zm3.3-17.17l-3.94,15.16-.9-2.24-.43-11.49c1.83-.55,3.61-1,5.27-1.43m-5.73,1.56l.38,10.18-3.68-9.14c1.1-.36,2.21-.71,3.3-1m-3.46,1.09l3.86,9.56,.21,5.6-4.82-14.9,.75-.26m-29.4,10.45l-6.87,22.95c-.13-.28-.25-.54-.35-.77l5.08-21.64c.71-.17,1.42-.36,2.11-.54m-9.31,30.29h-.06l-.46-9.49,.6,.35c0,.09,.03,.18,.07,.26,0,0,.54,1.14,1.29,2.78l-1.44,6.1Zm1.55-5.86c.08,.19,.17,.38,.26,.58l-1.58,5.28h-.03l1.35-5.86Zm-1.35-3.65h0l-.67-.4v-.37l.67,.77Zm-.74-1.21l-.05-.88,.87,1.72-.82-.84Zm-.09-1.62l-.2-4.16,1.34,6.42-1.14-2.26Zm0,2.43l-4.73-2.76-1.7-4.19,6.41,6.5,.02,.45Zm0,.38l.46,9.64h0l-5-12.3,4.54,2.66Zm1.06,9.65l1.53-5.13c1.24,2.73,2.84,6.37,3.86,9.13-2.12-1.71-5.12-3.84-5.28-4-.04,0-.07,0-.11,0m6.64-29.77l-5,21.33c-.3-.64-.5-1-.53-1.13-.06-.12-.16-.22-.28-.29l1.25-18.92c1.55-.29,3.09-.63,4.6-1m-4.93,1l-1.23,18.75-1.81-8.68-.46-9.51c1.16-.16,2.33-.34,3.5-.56m-3.66,.58l.41,8.49-1.74-8.34,1.33-.15m-2.13,.23h.48l2.16,10.34,.17,4.77-7.35-14.6c1.38-.19,2.86-.36,4.48-.51m-4.82,.56l7.69,15.34v1.06l-6.71-6.8-3.74-9.17c.84-.15,1.73-.29,2.67-.42m-2.83,.45l3.61,8.85-7.79-7.89c1.24-.35,2.63-.67,4.18-1m-4.39,1.1l8.45,8.56,1.78,4.36-13.78-8-2.28-2.49c1.83-1.05,3.79-1.87,5.83-2.43m-6,2.48l2,2.14-2.75-1.61c.26-.18,.54-.36,.83-.53m21.19,23.81l-33.97-16.59c5.05,.14,8.54-4.11,11.22-6.19,.13-.1,.26-.2,.4-.29l3.73,2.21,18.63,20.77s-.05,.08-.06,.13m-18.12-20.67l13.28,7.77,5.09,12.51-.1,.1-18.27-20.38Zm23.43,41.77c-2.37,2.46-1.2,3.51-2.25,4.08-1.1,.56-1.96,1.51-2.4,2.67-.27,1-.84,1.62-2.25,2.4s-1.13,1.54-.93,2.51c-.48,.3-.39,.66-.09,.87-.69,.51-1.5,1.71-2.25,2.37-.12,.11-.26,.26-.41,.41l6.05-35.31c1.13,.82,3.79,2.75,5.35,4.09-.19,.31-.32,.65-.39,1-.24,1.24,.4,2.49,1.56,3,0,2.58,.78,4,2.28,6.11-1.13,2.13-2.58,4.08-4.31,5.76m2.8-15.21c.3-.3,.94-.07,1.26,.25s.2,.68-.1,1-.67,.42-1,.1-.48-1-.18-1.33m29.54,9.69c-.03,.44-.03,.89,0,1.33-.52-1.07-.86-2.21-1-3.39,0-1.4-.95-1.76-1-2.48-.1-.6-.3-1.18-.59-1.71,.6,.56,1.3,.99,2.07,1.26,.18,.05,.36,.07,.54,.07,.08,1.64,.07,3.28-.05,4.92m-1.2-14.4c.1-.1,.2-.2,.29-.3,.41-.48,.65,.16,.77,1.19-.23-.1-.44-.24-.6-.43-.14-.17-.29-.32-.46-.46m2.45-4.82c-.86-.39-.24-.86-.24-.86,0,0,1-.86,1-.06s.12,1.3-.74,.92m-.08-4c-.14,.35-.39,.66-.7,.88-.33,.28-.65,.58-.94,.91-.54,.64-1.01,1.33-1.41,2.06-1.23,.58-2.35,1.36-3.33,2.3-4.25-2.36-7.49,.28-8.19,.45s-1.62,.6-1.62-.12c0-.52-.68-.25-1.09-.43-.18-.08-.29-.27-.28-.47-.07-.95,.47-2.81,1-2.93s1.56-.18,1.44-3c0-2.6-1.14-5.08-3.11-6.78-2.83-2.07-7.61-.7-9.76,1.68-.61,.65-.97,1.51-1,2.4-.06,2.46,.6,2.7,.6,2.7-.08,.72,.04,1.45,.36,2.1,.24,.78-.12,1.8,.24,3.3,.44,1.14,1.26,2.1,2.32,2.71,.25,.31,.46,.64,.63,1-1.14,.6-.15,.78,.33,.93s.57,1,.78,2.76c-1.05-.12-2.12-.12-3.17,0-1,0-1.83-.67-2.77-.89-.33-.06-.67-.06-1,0-1.19-3.42-3.52-8.6-4.9-11.6l6.92-23.2c5.1-1.39,10.11-3.11,15-5.14,2.84-1.2,7.83-3.14,13.08-4.91l4.95,15.33c-.03,.07-.05,.14-.06,.21,0,.09-1.32,9-1.78,10.75s-2.41,7-2.43,7.06m4.17-6.6c.49-1.82,1.77-10.58,1.82-11,.02-.1,.02-.19,0-.29l.62-.73,4.12,10.2c-.12,.05-.22,.14-.3,.24-.8,1-5.76,5.93-8.28,8.4-.08-.06-.17-.11-.27-.15,.51-1.37,1.9-5.2,2.3-6.72m23.72,24.12c-1.66-.15-3.33-.21-5-.18,.18-1.14-1-1-1.8-1.14,.24-.9-.12-1.38-.78-1.38-2.11,.29-4.26-.06-6.17-1-3.42-1.56-6.51-.63-7.2-1.32s-2.91,0-3.84-.9c-.35-.3-.76-.54-1.2-.69,.09-3.26,.06-5.56,.06-5.56,.29-.73,.5-1.48,.63-2.25-.05-.45,.14-.9,.49-1.18l1.22-1.22,2.45-2.45c1.7-1.58,3.32-3.25,4.86-5l16.94,24.37c-.29,0-.53-.06-.68-.07m-15.96-25.31c-.01-.07-.04-.14-.07-.2l18.43-26.46,16.29-10.28c.81,0,1.53,.05,2.13,.12h0l-36.78,36.82Z" style="fill:#ed1c24;"/><path d="M451.76,40.54c-.36-.85-.58-1.74-.67-2.66-.22-1.86-.66-3.7-1.3-5.46-.41-1.19-.93-2.33-1.55-3.42-.12-.22-1.59-1.94-1.57-2,2.39-10.67,.24-14.87-3.84-21.34s-15.35-4.8-19.43-2c-1.92-5.57-15.83-3.53-20.15-.66-.84-4.92-16.43-1.44-18.95,2.88-9.47-1.56-16.67,.72-20.74,5-6.48-1.2-15.83,2-18,7.08-6.48-3.24-16.67,2.16-17.87,6.6-9.36-1.56-15.35,4.07-16.43,9.23-8.64-2.4-14.63,9.47-14.63,9.47-2.59-.02-5.16,.47-7.56,1.44-4.19,2.64-4.44,5.4-4.91,13.8-.36,4.85,1.76,9.56,5.64,12.5,0,0,0,2.85,1.86,3.75-1.62,5.75,.45,8,2.34,9.89-.54,5.85,2.7,7.37,5.31,7,2.58-.32,5.2-.01,7.64,.9,.94,.38,1.94,.61,2.95,.69l34.3,16.77c0,.19,.07,.37,.19,.51l-6.39,36.86c-.41,.54-.9,1.03-1.44,1.44-.84,.54-.63,3.3-.72,4.47s.39,1.32,.84,1.38c-.15,1.08,.66,.54,.75,.93s.66-.18,.66-.18c0,0,.63,.06,.69-.51s0-3.3,.33-3.36,1.89-1.41,3.33-2.28,1.14-3,1.47-3.3c.78,.57,1.77-.78,1.77-.78,.55-.05,1.08-.18,1.59-.39,.54-.51,.9-1.18,1-1.92,.25,0,2.09-1.8,5-3.71s2.73-2.76,3.73-3.16,.69-.93,1-1.5,0-2.82,.13-3.49,1.49-.14,1.4,1.75,1.71,3.19,2.07,5.31-1.22,2.92,.72,3,1.35,1,.76,1-4.59,0-6.65,.23-3.83,3.37-4.77,4.32c-.94,.72-1.12,2.06-.41,3,.7,.7,.77,.9,.86,2.79s.36,1.89,1.39,2.21,1.8,.63,2.93,2.83c1.18,2.52,2.83,4.79,4.85,6.7,2.21,1.93,5.85,5.67,7.15,6.07-.45,4.54,.68,5.13,1.49,4.05,1.06-1.03,2.25-1.91,3.55-2.61,.07,.6,.07,1.2,0,1.8-1.87,1.87,.14,1.66,.67,3.28s1.8,2.7,1.67,4.41,.45,4.77,1.39,4.77c0,0,.33,.55,.58,.59s.72-.32,.95-.52c2.54-2.1,4.9-5.33,4.9-8.8,0-.9,1-1.21,1.13-3.42s-1.53-2.24-2.3-2.24c-.62-1.53-2.11-2.12-2.6-2.75s-1.53,.5-1.53,.5c-.41-.21-.73-.57-.9-1,.83-.89,1.04-2.19,.54-3.29-.36-.94-2.61-1.07-3.29-1.07s-.85-.05-.85-1.94-.31-2.34-2.43-2.34c-1.26,.18-1.48-2.25-1.62-3.1s-1.84-1.44-2-1.8c1.35-.22,3.24-.58,3.24-.58,0,0,3.87,1.17,4.81,1s2.16-.27,2.34-1.71c2.12,2.12,3.33,5,5.71,7.42s3.29,1.85,5,3.15c-.27,4.41,1.34,2.79,1.88,2.47l1.4-.81c.27,.7,.76,1.3,1.39,1.71-1.08,1.53-.58,2.34,.5,2.84s1.39,1.35,2.7,1.62c.43,1.19,1.01,2.32,1.74,3.35,.52,.88,.69,2,1.27,2.84,.79,.85,2.01,1.14,3.1,.73,1.17-.45,2-1.3,2.75-4.32s-2.52-6.61-3.11-7-1.12-1.94-1.48-3-2.16-.45-2.16-.45c-.35-.32-.6-.74-.72-1.21,1.93-4.91-2.61-8.32-3.37-9.36s-1.76-.76-2.07-1.12c-.41-1.31-4.27-3.24-5.31-3.74,2.11-1.81,3.42-4.38,3.64-7.15,0-3.1-2.51-7.28-3.91-9.44-.72-1.13-1.7-2.08-2.86-2.77,.24-2.17,.31-5,.41-8.18,.04,.05,.08,.1,.11,.16,.86,1.39,1.49,.94,2,.63s1.39-.54,1.69-.24,.42,1,1.26,1.11c.87-.02,1.73,.07,2.58,.27,1.76,.44,3.59,.56,5.4,.36,1.61-.3,3.38-.51,3.8-.21,.61,.53,1.32,.92,2.1,1.13,.78,.09,.45-.8,.45-.8,.32,.14,.66,.22,1,.24,.48,0,.69,0,.69-.39,.42,0,.72,.27,1.71,1s4.44,.18,4.89-.06c.72,.16,1.44-.56,1.62-.12s.86,.27,.92,.72,.08,.8,.24,1c.06,.63,.48,.69,.72,.62,0,.91,.84,.29,.81-.18,.45,0,.59-.77,.5-1.49,.27,.5,1,1.22,1-.58s-1.55-3.07-1.91-3.43c-1.19-.43-2.43-.71-3.69-.82l-17.56-25.15s0-.08,0-.12l37-37c3.85,.54,7.68-1.06,10-4.18,2-2.52,3.72-3.12,7.67-5.4,1.66-.98,2.71-2.75,2.76-4.68,.07-.63,0-1.27-.22-1.87-.21-.38-.33-.7-.45-1.01Zm-22.38,17l-16,10.12-1.23-2,4.5-7.31c4.22-.53,8.47-.8,12.73-.81Zm-35.78,21.58l.45,14.71h-.14l-4.15-10.29,3.84-4.42Zm-4,4l-.1-.25,4-7.84,.11,3.43-4.01,4.66Zm4.17-4.2l7.52-8.77-7,23.68h-.07l-.45-14.91Zm.69,14.93l7.09-24,7.56-8.85,2.82,4.62-17.39,28.3s-.07-.03-.1-.05l.02-.02Zm17.54-28.06l1.2,2-18.35,26.37c-.04-.05-.08-.1-.13-.14h0l17.28-28.23Zm4.38-7.43l-4.38,7.13-2.81-4.59,1.25-1.46c1.96-.5,3.96-.86,5.97-1.08h-.03Zm-7.38,1.64c.2-.12,.41-.22,.63-.3l-.69,.81-.2-.34,.26-.17Zm-.4,.25l.24,.39-7.06,8.22,1.78-6c1.76-.73,3.46-1.6,5.08-2.61h-.04Zm-5.22,2.66l-1.85,6.25-7.84,9.14-.11-3.55,5.25-10.3c1.56-.42,3.09-.94,4.59-1.54h-.04Zm-8.86,2.58c1.37-.28,2.61-.57,3.75-.88l-4.71,9.24-.25-8.1,1.21-.26Zm-1.37,.3l.26,8.36-4.19,8.21-.25-.61,4.15-16,.03,.04Zm-4.15,16.21l.22,.55-.65,1.26h0l.43-1.81Zm-.9,1.73h0l-.16-4.43,.82,2-.66,2.43Zm1.33-.65l.08,.2-.45,.52,.37-.72Zm3.3-17.17l-3.94,15.16-.9-2.24-.43-11.49c1.78-.55,3.54-1.04,5.22-1.43h.05Zm-5.73,1.56l.38,10.18-3.68-9.14c1.08-.36,2.19-.71,3.3-1.04Zm-3.46,1.09l3.86,9.56,.21,5.6-4.82-14.9,.75-.26Zm-29.4,10.49l-6.87,22.95c-.13-.28-.25-.54-.35-.77l5.08-21.64c.74-.17,1.45-.36,2.14-.54Zm-9.31,30.29h-.06l-.46-9.49,.6,.35c0,.09,.03,.18,.07,.26,0,0,.54,1.14,1.29,2.78l-1.44,6.1Zm1.55-5.86c.08,.19,.17,.38,.26,.58l-1.58,5.28h-.06l1.38-5.86Zm-1.38-3.65h0l-.67-.4v-.37l.67,.77Zm-.74-1.21l-.05-.88,.87,1.72-.82-.84Zm-.09-1.62l-.2-4.16,1.34,6.42-1.14-2.26Zm0,2.43l-4.73-2.76-1.7-4.19,6.41,6.5,.02,.45Zm0,.38l.46,9.64h0l-5-12.3,4.54,2.66Zm1.06,9.65l1.53-5.13c1.24,2.73,2.84,6.37,3.86,9.13-2.12-1.71-5.12-3.84-5.28-4-.04-.03-.08-.05-.13-.05l.02,.05Zm6.64-29.77l-5,21.33c-.3-.64-.5-1-.53-1.13-.06-.12-.16-.22-.28-.29l1.25-18.92c1.49-.34,3.03-.68,4.54-1.04l.02,.05Zm-4.93,1l-1.23,18.75-1.81-8.68-.46-9.51c1.14-.16,2.31-.34,3.48-.56h.02Zm-3.66,.58l.41,8.49-1.74-8.34,1.33-.15Zm-2.13,.23h.48l2.16,10.34,.21,4.76-7.35-14.6c1.35-.18,2.86-.35,4.48-.5h.02Zm-4.82,.56l7.67,15.33v1.06l-6.71-6.8-3.74-9.17c.9-.15,1.82-.29,2.76-.42h.02Zm-2.83,.45l3.61,8.85-7.79-7.89c1.22-.35,2.61-.67,4.16-.96h.02Zm-4.5,1.06l8.45,8.56,1.78,4.36-13.78-8-2.28-2.49c1.83-1.05,3.79-1.87,5.83-2.43Zm-6,2.48l2,2.14-2.75-1.61c.21-.18,.49-.36,.75-.53Zm21.19,23.81l-33.89-16.59c5.05,.14,8.54-4.11,11.22-6.19,.13-.1,.26-.2,.4-.29l3.73,2.21,18.63,20.77s-.04,.06-.06,.09h-.03Zm-18.09-20.63l13.28,7.77,5.09,12.51-.1,.1-18.27-20.38Zm23.43,41.77c-2.37,2.46-1.2,3.51-2.25,4.08-1.1,.56-1.96,1.51-2.4,2.67-.27,1-.84,1.62-2.25,2.4s-1.13,1.54-.93,2.51c-.48,.3-.39,.66-.09,.87-.69,.51-1.5,1.71-2.25,2.37-.12,.11-.26,.26-.41,.41l6.05-35.31c1.13,.82,3.79,2.75,5.35,4.09-.19,.31-.32,.65-.39,1-.24,1.24,.4,2.49,1.56,3,0,2.58,.78,4,2.28,6.11-1.11,2.14-2.55,4.1-4.27,5.8Zm2.8-15.21c.3-.3,.94-.07,1.26,.25s.2,.68-.1,1-.67,.42-1,.1-.49-1.05-.16-1.35Zm29.54,9.69c-.03,.44-.03,.89,0,1.33-.52-1.07-.86-2.21-1-3.39,0-1.4-.95-1.76-1-2.48-.1-.6-.3-1.18-.59-1.71,.6,.56,1.3,.99,2.07,1.26,.18,.05,.36,.07,.54,.07,.09,1.64,.09,3.28-.02,4.92Zm-1.2-14.4c.1-.1,.2-.2,.29-.3,.41-.48,.65,.16,.77,1.19-.23-.1-.44-.24-.6-.43-.14-.17-.29-.32-.46-.46h0Zm2.45-4.82c-.86-.39-.24-.86-.24-.86,0,0,1-.86,1-.06s.12,1.3-.76,.92Zm-.08-4c-.14,.35-.39,.66-.7,.88-.33,.28-.65,.58-.94,.91-.54,.64-1.01,1.33-1.41,2.06-1.23,.58-2.35,1.36-3.33,2.3-4.25-2.36-7.49,.28-8.19,.45s-1.62,.6-1.62-.12c0-.52-.68-.25-1.09-.43-.18-.08-.29-.27-.28-.47-.07-.95,.47-2.81,1-2.93s1.56-.18,1.44-3c0-2.6-1.14-5.08-3.11-6.78-2.83-2.07-7.61-.7-9.76,1.68-.61,.65-.97,1.51-1,2.4-.06,2.46,.6,2.7,.6,2.7-.08,.72,.04,1.45,.36,2.1,.24,.78-.12,1.8,.24,3.3,.43,1.12,1.22,2.07,2.25,2.69,.25,.31,.46,.64,.63,1-1.14,.6-.15,.78,.33,.93s.57,1,.78,2.76c-1.05-.12-2.12-.12-3.17,0-1,0-1.83-.67-2.77-.89-.33-.06-.67-.06-1,0-1.19-3.42-3.52-8.6-4.9-11.6l6.92-23.2c5.1-1.39,10.11-3.11,15-5.14,2.84-1.2,7.83-3.14,13.08-4.91l4.95,15.33c-.03,.07-.05,.14-.06,.21,0,.09-1.32,9-1.78,10.75s-2.45,7-2.51,7.06l.04-.04Zm4.17-6.6c.49-1.82,1.77-10.58,1.82-11,.02-.1,.02-.19,0-.29l.62-.73,4.12,10.2c-.12,.05-.22,.14-.3,.24-.8,1-5.76,5.93-8.28,8.4-.08-.06-.17-.11-.27-.15,.5-1.28,1.89-5.11,2.29-6.63v-.04Zm23.72,24.12c-1.66-.15-3.33-.21-5-.18,.18-1.14-1-1-1.8-1.14,.24-.9-.12-1.38-.78-1.38-2.11,.29-4.26-.06-6.17-1-3.42-1.56-6.51-.63-7.2-1.32s-2.91,0-3.84-.9c-.35-.3-.76-.54-1.2-.69,.09-3.26,.06-5.56,.06-5.56,.29-.73,.5-1.48,.63-2.25-.05-.45,.14-.9,.49-1.18l1.22-1.22,2.45-2.45c1.7-1.58,3.32-3.25,4.86-5l16.94,24.37c-.27-.03-.51-.05-.66-.06v-.04Zm-15.93-25.29c-.01-.07-.04-.14-.07-.2l18.43-26.46,16.29-10.28c.81,0,1.53,.05,2.13,.12h0l-36.78,36.82Z" style="fill:none; stroke:#231f20; stroke-miterlimit:10; stroke-width:.28px;"/><path d="M288.17,59.85c0-1.59,.17-3.18,.52-4.73,.18-.78,.41-1.54,.71-2.28,.14-.37,.32-.74,.49-1.09,.19-.34,.4-.68,.62-1,.22-.34,.47-.65,.74-.95,.27-.3,.56-.57,.87-.82,.32-.25,.65-.48,1-.68,.36-.19,.73-.35,1.11-.48,.18-.08,.37-.14,.57-.18,.2,0,.39-.1,.59-.13,.4-.06,.8-.1,1.2-.12,.4-.02,.8-.02,1.2,0,.4,0,.8,.1,1.2,.15l-.12,.06,.48-1.08,.53-1.06,.58-1,.62-1c.21-.33,.45-.65,.67-1s.48-.63,.72-.94,.51-.61,.77-.91,.54-.57,.82-.85c.28-.28,.57-.55,.88-.8,.3-.26,.61-.5,.94-.72,.32-.24,.65-.45,1-.63,.34-.2,.7-.38,1.07-.52,.37-.16,.76-.28,1.15-.36,.19-.06,.39-.09,.59-.11l.59-.07h1.21c.4,0,.78,.16,1.18,.24l-.18,.07c.23-.33,.45-.67,.69-1s.48-.65,.74-1c.51-.62,1.06-1.21,1.65-1.77,.29-.28,.58-.56,.9-.82,.3-.27,.61-.52,.94-.75,.32-.25,.66-.48,1-.7,.32-.23,.65-.43,1-.62,.35-.2,.71-.39,1.08-.55,.37-.18,.74-.33,1.13-.46l.57-.21,.58-.17,.58-.16,.6-.12c.39-.1,.8-.16,1.2-.2,.4,0,.81-.1,1.21-.09s.81,0,1.22,0l1.21,.08-.18,.07,.78-.93c.26-.31,.56-.58,.83-.88,.28-.29,.58-.56,.89-.82,.3-.28,.61-.53,.94-.77l.48-.36,.51-.33c.32-.23,.65-.44,1-.63,.36-.2,.71-.39,1.08-.55,.37-.18,.74-.33,1.12-.47,.38-.15,.76-.27,1.15-.38,.39-.12,.78-.22,1.18-.3l.59-.12,.61-.08c.4-.07,.8-.11,1.21-.12h1.21c.4,0,.81,.03,1.21,.08,.41,0,.81,.12,1.21,.17s.79,.19,1.18,.28l-.23,.06,1-.93,1-.89,1.06-.83c.38-.25,.74-.52,1.12-.76s.77-.48,1.16-.7,.8-.43,1.21-.62,.82-.38,1.25-.53,.84-.33,1.28-.44,.86-.27,1.31-.36,.88-.21,1.32-.27,.9-.15,1.35-.18c.45-.06,.9-.09,1.35-.1h2.7c.45,0,.9,.05,1.34,.11l1.35,.16-.25,.09c.31-.33,.6-.67,.91-1s.66-.61,1-.89,.7-.55,1.07-.8,.74-.49,1.12-.72l1.17-.64,1.21-.56,1.31-.38c.42-.16,.85-.28,1.27-.42s.85-.23,1.28-.34,.87-.18,1.3-.27,.88-.13,1.32-.19c.44-.06,.89-.09,1.33-.1h1.33c.89,.03,1.78,.15,2.65,.35,.44,.1,.86,.27,1.29,.4h-.23c.32-.28,.65-.54,1-.78l.51-.35,.53-.33c.35-.22,.73-.4,1.1-.59s.75-.35,1.13-.52,.78-.3,1.16-.45l1.18-.41,1.21-.3,1.22-.22c.41-.07,.83-.1,1.24-.15s.83,0,1.24-.07,.83,0,1.24,0c.41,0,.83,.04,1.24,.1l.62,.06,.61,.12c.41,.07,.82,.16,1.22,.27,.4,.1,.8,.22,1.19,.36l1.17,.43h-.16c1.44-.62,2.98-1.01,4.55-1.14,1.55-.17,3.11-.2,4.66-.11,1.56,.07,3.11,.29,4.63,.63,.76,.17,1.51,.41,2.23,.71,.35,.16,.68,.34,1,.56,.35,.22,.64,.53,.85,.89h-.24c.78-.71,1.66-1.29,2.61-1.74,.47-.22,.95-.43,1.44-.61,.49-.18,.99-.34,1.5-.47,1.01-.26,2.05-.42,3.09-.45,.53,0,1.06,.05,1.59,.13l.77,.12,.77,.19,.74,.25,.72,.31c.22,.13,.46,.25,.68,.39l.65,.44,.6,.5,.56,.55c.36,.38,.7,.8,1,1.23,.29,.43,.55,.88,.78,1.35,.23,.47,.43,.95,.61,1.44,.19,.48,.32,1,.47,1.48s.23,1,.35,1.51h0c.3,.03,.61,.1,.9,.18l.4,.06c.14,.05,.28,.11,.42,.18l.41,.21c.13,.07,.25,.17,.38,.25l.37,.26c.13,.09,.23,.2,.35,.3l.33,.31c.11,.11,.21,.22,.3,.35l.28,.35c.1,.12,.19,.25,.25,.39,.16,.26,.3,.53,.41,.81l.3,.86-.3-.86c-.12-.28-.27-.54-.43-.8-.06-.14-.15-.27-.25-.38l-.28-.35c-.09-.12-.19-.24-.3-.35l-.34-.3c-.11-.1-.22-.21-.34-.3l-.38-.25c-.12-.09-.25-.17-.38-.24l-.41-.2c-.13-.07-.27-.13-.41-.18l-.43-.14c-.29-.08-.59-.14-.89-.17h0c-.12-.5-.22-1-.37-1.5-.13-.5-.29-.99-.48-1.47-.18-.48-.39-.96-.62-1.42-.23-.46-.5-.9-.79-1.32-.3-.43-.63-.83-1-1.2l-.54-.54-.6-.48-.64-.43c-.22-.13-.45-.24-.67-.36l-.71-.31-.72-.23-.75-.18-.77-.11c-.51-.03-1.02-.03-1.53,0-1.01,.04-2.02,.2-3,.46-.5,.13-.99,.28-1.47,.47-.48,.18-.95,.38-1.41,.6-.94,.41-1.81,.97-2.59,1.64l-.15,.14-.09-.18c-.18-.31-.44-.57-.75-.76-.31-.23-.65-.42-1.01-.57-.71-.29-1.44-.52-2.19-.69-1.5-.33-3.03-.54-4.56-.61-1.54-.08-3.08-.03-4.61,.13-1.52,.16-3,.55-4.39,1.17h-.15l-1.1-.43c-.38-.15-.78-.22-1.17-.34-.41-.1-.82-.18-1.23-.23l-.6-.14-.61-.06c-.4-.06-.8-.09-1.21-.1h-1.22c-.4,0-.81,0-1.22,.08s-.81,.08-1.21,.14-.8,.14-1.19,.23l-1.19,.29-1.15,.36c-.38,.15-.76,.28-1.13,.44s-.75,.32-1.11,.51-.72,.37-1.06,.59l-.52,.32-.5,.34c-.34,.23-.63,.5-.94,.75l-.11,.08h-.13c-.41-.12-.81-.28-1.22-.37s-.84-.2-1.27-.23-.86-.11-1.29-.1-.87,0-1.3,0-.87,0-1.3,.11-.86,.09-1.28,.19-.86,.15-1.28,.27-.84,.2-1.25,.34-.83,.26-1.24,.41l-1.21,.48-1.17,.56-1.14,.63c-.37,.22-.73,.47-1.09,.7s-.69,.52-1,.78-.64,.58-1,.86-.58,.64-.87,1l-.1,.11h-.14l-1.35-.24c-.44,0-.88-.07-1.32-.1s-.88,0-1.33-.05-.88,0-1.32,0-.88,.05-1.32,.09-.88,.1-1.31,.17-.87,.16-1.3,.26-.85,.22-1.27,.34-.84,.29-1.25,.43-.81,.35-1.22,.52-.78,.4-1.18,.59-.76,.45-1.14,.68-.73,.49-1.09,.74l-1.05,.81-1,.87-1,.91-.09,.09h-.14c-.38-.09-.76-.2-1.14-.27s-.77-.15-1.17-.18c-.78-.08-1.57-.11-2.35-.07-.39,.02-.79,.05-1.18,.11l-.58,.07-.58,.12c-.39,.07-.77,.17-1.14,.29-.38,.1-.76,.22-1.13,.37-.37,.13-.74,.28-1.09,.45-.36,.16-.71,.33-1.05,.53-.34,.18-.68,.39-1,.61l-.49,.32-.47,.35c-.32,.23-.63,.48-.92,.75-.31,.25-.6,.52-.87,.8-.27,.29-.57,.56-.82,.86l-.76,.9-.07,.09h-.11l-1.19-.08h-1.18c-.39,0-.79,.04-1.18,.09-.4,.04-.79,.1-1.18,.19l-.58,.11-.57,.16-.57,.16-.56,.2c-.37,.13-.74,.28-1.1,.45-.37,.16-.72,.34-1.06,.54-.34,.18-.68,.38-1,.6-.67,.43-1.31,.91-1.91,1.42-.31,.25-.6,.52-.88,.79-.58,.55-1.12,1.14-1.63,1.75-.27,.29-.49,.62-.74,.93s-.46,.65-.69,1l-.06,.09h-.12c-.37-.08-.74-.17-1.12-.24s-.77-.06-1.15,0l-.57,.07c-.19,0-.38,.04-.56,.1-.38,.08-.75,.2-1.1,.35-.36,.13-.71,.3-1.05,.49-.35,.17-.68,.38-1,.61-.32,.21-.63,.45-.92,.7-.3,.24-.59,.5-.87,.78-.28,.28-.56,.54-.81,.84s-.53,.58-.76,.89-.5,.6-.72,.93-.45,.63-.67,1l-.62,1-.59,1-.53,1-.49,1.06v.08h-.08c-.39-.06-.78-.13-1.17-.16-.39-.03-.79-.03-1.18,0-.4,0-.79,.04-1.18,.1l-.57,.12c-.19,.04-.39,.1-.57,.17-.38,.12-.74,.28-1.09,.46-.35,.19-.68,.41-1,.65-.31,.24-.6,.51-.86,.8-.27,.29-.52,.6-.74,.93-.23,.32-.44,.66-.63,1-.17,.35-.35,.71-.5,1.08-.3,.73-.54,1.49-.73,2.26-.37,1.55-.57,3.13-.57,4.72" style="fill:#ed1c24;"/><path d="M288.17,59.85c0-1.59,.17-3.18,.52-4.73,.18-.78,.41-1.54,.71-2.28,.14-.37,.32-.74,.49-1.09,.19-.34,.4-.68,.62-1,.22-.34,.47-.65,.74-.95,.27-.3,.56-.57,.87-.82,.32-.25,.65-.48,1-.68,.36-.19,.73-.35,1.11-.48,.18-.08,.37-.14,.57-.18,.2,0,.39-.1,.59-.13,.4-.06,.8-.1,1.2-.12,.4-.02,.8-.02,1.2,0,.4,0,.8,.1,1.2,.15l-.12,.06,.48-1.08,.53-1.06,.58-1,.62-1c.21-.33,.45-.65,.67-1s.48-.63,.72-.94,.51-.61,.77-.91,.54-.57,.82-.85c.28-.28,.57-.55,.88-.8,.3-.26,.61-.5,.94-.72,.32-.24,.65-.45,1-.63,.34-.2,.7-.38,1.07-.52,.37-.16,.76-.28,1.15-.36,.19-.06,.39-.09,.59-.11l.59-.07h1.21c.4,0,.78,.16,1.18,.24l-.18,.07c.23-.33,.45-.67,.69-1s.48-.65,.74-1c.51-.62,1.06-1.21,1.65-1.77,.29-.28,.58-.56,.9-.82,.3-.27,.61-.52,.94-.75,.32-.25,.66-.48,1-.7,.32-.23,.65-.43,1-.62,.35-.2,.71-.39,1.08-.55,.37-.18,.74-.33,1.13-.46l.57-.21,.58-.17,.58-.16,.6-.12c.39-.1,.8-.16,1.2-.2,.4,0,.81-.1,1.21-.09s.81,0,1.22,0l1.21,.08-.18,.07,.78-.93c.26-.31,.56-.58,.83-.88,.28-.29,.58-.56,.89-.82,.3-.28,.61-.53,.94-.77l.48-.36,.51-.33c.32-.23,.65-.44,1-.63,.36-.2,.71-.39,1.08-.55,.37-.18,.74-.33,1.12-.47,.38-.15,.76-.27,1.15-.38,.39-.12,.78-.22,1.18-.3l.59-.12,.61-.08c.4-.07,.8-.11,1.21-.12h1.21c.4,0,.81,.03,1.21,.08,.41,0,.81,.12,1.21,.17s.79,.19,1.18,.28l-.23,.06,1-.93,1-.89,1.06-.83c.38-.25,.74-.52,1.12-.76s.77-.48,1.16-.7,.8-.43,1.21-.62,.82-.38,1.25-.53,.84-.33,1.28-.44,.86-.27,1.31-.36,.88-.21,1.32-.27,.9-.15,1.35-.18c.45-.06,.9-.09,1.35-.1h2.7c.45,0,.9,.05,1.34,.11l1.35,.16-.25,.09c.31-.33,.6-.67,.91-1s.66-.61,1-.89,.7-.55,1.07-.8,.74-.49,1.12-.72l1.17-.64,1.21-.56,1.31-.38c.42-.16,.85-.28,1.27-.42s.85-.23,1.28-.34,.87-.18,1.3-.27,.88-.13,1.32-.19c.44-.06,.89-.09,1.33-.1h1.33c.89,.03,1.78,.15,2.65,.35,.44,.1,.86,.27,1.29,.4h-.23c.32-.28,.65-.54,1-.78l.51-.35,.53-.33c.35-.22,.73-.4,1.1-.59s.75-.35,1.13-.52,.78-.3,1.16-.45l1.18-.41,1.21-.3,1.22-.22c.41-.07,.83-.1,1.24-.15s.83,0,1.24-.07,.83,0,1.24,0c.41,0,.83,.04,1.24,.1l.62,.06,.61,.12c.41,.07,.82,.16,1.22,.27,.4,.1,.8,.22,1.19,.36l1.17,.43h-.16c1.44-.62,2.98-1.01,4.55-1.14,1.55-.17,3.11-.2,4.66-.11,1.56,.07,3.11,.29,4.63,.63,.76,.17,1.51,.41,2.23,.71,.35,.16,.68,.34,1,.56,.35,.22,.64,.53,.85,.89h-.24c.78-.71,1.66-1.29,2.61-1.74,.47-.22,.95-.43,1.44-.61,.49-.18,.99-.34,1.5-.47,1.01-.26,2.05-.42,3.09-.45,.53,0,1.06,.05,1.59,.13l.77,.12,.77,.19,.74,.25,.72,.31c.22,.13,.46,.25,.68,.39l.65,.44,.6,.5,.56,.55c.36,.38,.7,.8,1,1.23,.29,.43,.55,.88,.78,1.35,.23,.47,.43,.95,.61,1.44,.19,.48,.32,1,.47,1.48s.23,1,.35,1.51h0c.3,.03,.61,.1,.9,.18l.4,.06c.14,.05,.28,.11,.42,.18l.41,.21c.13,.07,.25,.17,.38,.25l.37,.26c.13,.09,.23,.2,.35,.3l.33,.31c.11,.11,.21,.22,.3,.35l.28,.35c.1,.12,.19,.25,.25,.39,.16,.26,.3,.53,.41,.81l.3,.86-.3-.86c-.12-.28-.27-.54-.43-.8-.06-.14-.15-.27-.25-.38l-.28-.35c-.09-.12-.19-.24-.3-.35l-.34-.3c-.11-.1-.22-.21-.34-.3l-.38-.25c-.12-.09-.25-.17-.38-.24l-.41-.2c-.13-.07-.27-.13-.41-.18l-.43-.14c-.29-.08-.59-.14-.89-.17h0c-.12-.5-.22-1-.37-1.5-.13-.5-.29-.99-.48-1.47-.18-.48-.39-.96-.62-1.42-.23-.46-.5-.9-.79-1.32-.3-.43-.63-.83-1-1.2l-.54-.54-.6-.48-.64-.43c-.22-.13-.45-.24-.67-.36l-.71-.31-.72-.23-.75-.18-.77-.11c-.51-.03-1.02-.03-1.53,0-1.01,.04-2.02,.2-3,.46-.5,.13-.99,.28-1.47,.47-.48,.18-.95,.38-1.41,.6-.94,.41-1.81,.97-2.59,1.64l-.15,.14-.09-.18c-.18-.31-.44-.57-.75-.76-.31-.23-.65-.42-1.01-.57-.71-.29-1.44-.52-2.19-.69-1.5-.33-3.03-.54-4.56-.61-1.54-.08-3.08-.03-4.61,.13-1.52,.16-3,.55-4.39,1.17h-.15l-1.1-.43c-.38-.15-.78-.22-1.17-.34-.41-.1-.82-.18-1.23-.23l-.6-.14-.61-.06c-.4-.06-.8-.09-1.21-.1h-1.22c-.4,0-.81,0-1.22,.08s-.81,.08-1.21,.14-.8,.14-1.19,.23l-1.19,.29-1.15,.36c-.38,.15-.76,.28-1.13,.44s-.75,.32-1.11,.51-.72,.37-1.06,.59l-.52,.32-.5,.34c-.34,.23-.63,.5-.94,.75l-.11,.08h-.13c-.41-.12-.81-.28-1.22-.37s-.84-.2-1.27-.23-.86-.11-1.29-.1-.87,0-1.3,0-.87,0-1.3,.11-.86,.09-1.28,.19-.86,.15-1.28,.27-.84,.2-1.25,.34-.83,.26-1.24,.41l-1.21,.48-1.17,.56-1.14,.63c-.37,.22-.73,.47-1.09,.7s-.69,.52-1,.78-.64,.58-1,.86-.58,.64-.87,1l-.1,.11h-.14l-1.35-.24c-.44,0-.88-.07-1.32-.1s-.88,0-1.33-.05-.88,0-1.32,0-.88,.05-1.32,.09-.88,.1-1.31,.17-.87,.16-1.3,.26-.85,.22-1.27,.34-.84,.29-1.25,.43-.81,.35-1.22,.52-.78,.4-1.18,.59-.76,.45-1.14,.68-.73,.49-1.09,.74l-1.05,.81-1,.87-1,.91-.09,.09h-.14c-.38-.09-.76-.2-1.14-.27s-.77-.15-1.17-.18c-.78-.08-1.57-.11-2.35-.07-.39,.02-.79,.05-1.18,.11l-.58,.07-.58,.12c-.39,.07-.77,.17-1.14,.29-.38,.1-.76,.22-1.13,.37-.37,.13-.74,.28-1.09,.45-.36,.16-.71,.33-1.05,.53-.34,.18-.68,.39-1,.61l-.49,.32-.47,.35c-.32,.23-.63,.48-.92,.75-.31,.25-.6,.52-.87,.8-.27,.29-.57,.56-.82,.86l-.76,.9-.07,.09h-.11l-1.19-.08h-1.18c-.39,0-.79,.04-1.18,.09-.4,.04-.79,.1-1.18,.19l-.58,.11-.57,.16-.57,.16-.56,.2c-.37,.13-.74,.28-1.1,.45-.37,.16-.72,.34-1.06,.54-.34,.18-.68,.38-1,.6-.67,.43-1.31,.91-1.91,1.42-.31,.25-.6,.52-.88,.79-.58,.55-1.12,1.14-1.63,1.75-.27,.29-.49,.62-.74,.93s-.46,.65-.69,1l-.06,.09h-.12c-.37-.08-.74-.17-1.12-.24s-.77-.06-1.15,0l-.57,.07c-.19,0-.38,.04-.56,.1-.38,.08-.75,.2-1.1,.35-.36,.13-.71,.3-1.05,.49-.35,.17-.68,.38-1,.61-.32,.21-.63,.45-.92,.7-.3,.24-.59,.5-.87,.78-.28,.28-.56,.54-.81,.84s-.53,.58-.76,.89-.5,.6-.72,.93-.45,.63-.67,1l-.62,1-.59,1-.53,1-.49,1.06v.08h-.08c-.39-.06-.78-.13-1.17-.16-.39-.03-.79-.03-1.18,0-.4,0-.79,.04-1.18,.1l-.57,.12c-.19,.04-.39,.1-.57,.17-.38,.12-.74,.28-1.09,.46-.35,.19-.68,.41-1,.65-.31,.24-.6,.51-.86,.8-.27,.29-.52,.6-.74,.93-.23,.32-.44,.66-.63,1-.17,.35-.35,.71-.5,1.08-.3,.73-.54,1.49-.73,2.26-.36,1.51-.54,3.05-.55,4.6Z" style="fill:none; stroke:#231f20; stroke-miterlimit:10; stroke-width:.28px;"/></g></g></g></g></svg>